<!-- Generated by IcoMoon.io -->
<svg version="1.1" xmlns="http://www.w3.org/2000/svg" width="64" height="64" viewBox="0 0 64 64">
<title>sun</title>
<path d="M33.058 44c6.075 0 11-4.925 11-11s-4.925-11-11-11c-6.075 0-11 4.925-11 11s4.925 11 11 11v0zM33.058 14c-0.552 0-1 0.431-1 0.991v4.018c0 0.547 0.464 0.991 1 0.991 0.552 0 1-0.431 1-0.991v-4.018c0-0.547-0.464-0.991-1-0.991v0zM46.534 19.582c-0.391-0.39-1.012-0.402-1.408-0.006l-2.842 2.841c-0.387 0.387-0.373 1.029 0.007 1.408 0.391 0.39 1.012 0.402 1.408 0.006l2.842-2.841c0.387-0.387 0.373-1.029-0.007-1.408v0zM52.116 33.058c0-0.552-0.431-1-0.991-1h-4.018c-0.547 0-0.991 0.464-0.991 1 0 0.552 0.431 1 0.991 1h4.018c0.547 0 0.991-0.464 0.991-1v0zM46.534 46.534c0.391-0.391 0.402-1.012 0.007-1.408l-2.841-2.842c-0.387-0.387-1.029-0.373-1.408 0.007-0.391 0.391-0.402 1.012-0.007 1.408l2.842 2.842c0.387 0.387 1.029 0.373 1.408-0.007v0zM33.058 52.116c0.552 0 1-0.431 1-0.991v-4.018c0-0.547-0.464-0.991-1-0.991-0.552 0-1 0.431-1 0.991v4.018c0 0.547 0.464 0.991 1 0.991v0zM19.582 46.534c0.39 0.391 1.012 0.402 1.408 0.007l2.841-2.841c0.387-0.387 0.373-1.029-0.006-1.408-0.39-0.391-1.012-0.402-1.408-0.007l-2.841 2.842c-0.387 0.387-0.373 1.029 0.006 1.408v0zM14 33.058c0 0.552 0.431 1 0.991 1h4.018c0.547 0 0.991-0.464 0.991-1 0-0.552-0.431-1-0.991-1h-4.018c-0.547 0-0.991 0.464-0.991 1v0zM19.582 19.582c-0.39 0.39-0.402 1.012-0.006 1.408l2.841 2.841c0.387 0.387 1.029 0.373 1.408-0.006 0.39-0.39 0.402-1.012 0.006-1.408l-2.841-2.841c-0.387-0.387-1.029-0.373-1.408 0.006v0z"></path>
</svg>
