<svg xmlns="http://www.w3.org/2000/svg" xmlns:xlink="http://www.w3.org/1999/xlink" x="0px" y="0px" width="48px" height="48px" viewBox="0 0 48 48"><g >
<circle fill="#030502" cx="24" cy="24" r="24"/>
<path fill="#FFFFFF" d="M39.38762,17.98096L24.76269,8.23106c-0.46199-0.30803-1.06344-0.30803-1.52548,0L8.61228,17.98096
	C8.24553,18.22708,8,18.6582,8,19.12484v9.74991c0,0.472,0.25263,0.90768,0.61228,1.14377l14.62492,9.75002
	c0.23099,0.15396,0.49701,0.23143,0.76295,0.23143c0.26553,0,0.53143-0.07747,0.76253-0.23143l14.62493-9.75002
	C39.74139,29.78931,40,29.35213,40,28.87475v-9.74991C40,18.68246,39.77252,18.2359,39.38762,17.98096z M25.37508,11.94452
	l10.77377,7.18198l-4.8123,3.21938l-5.96146-3.98783V11.94452z M22.62486,11.94452v6.41353l-5.96113,3.98783l-4.81269-3.21938
	L22.62486,11.94452z M10.75016,21.69869l3.44035,2.3011l-3.44035,2.30116V21.69869z M22.62486,36.05507l-10.77382-7.18204
	l4.81269-3.2185l5.96113,3.98701V36.05507z M24.00016,27.25284l-4.86359-3.25305l4.86359-3.25304l4.86322,3.25304L24.00016,27.25284
	z M25.37508,36.05507v-6.41353l5.96146-3.98701l4.8123,3.2185L25.37508,36.05507z M37.24973,26.30095l-3.43991-2.30116
	l3.43991-2.3011V26.30095z"/>
</g></svg>