<svg xmlns="http://www.w3.org/2000/svg" xmlns:xlink="http://www.w3.org/1999/xlink" x="0px" y="0px" width="48px" height="48px" viewBox="0 0 48 48"><g >
<path fill="#444444" d="M1.72815,19.73523c-0.01558,0.08164-0.026,0.16442-0.04006,0.24681
	c0.04234,0.07572,0.07944,0.15334,0.12246,0.22791L1.72815,19.73523z"/>
<path fill="#444444" d="M46.25923,28.25101c0.01634-0.08423,0.02669-0.16959,0.04226-0.2542
	c-0.04226-0.07541-0.07936-0.15371-0.12391-0.22904L46.25923,28.25101z"/>
<path fill="#444444" d="M27.75181,46.07695c0.07723,0.04493,0.15515,0.08316,0.23086,0.12619
	c0.08537-0.01521,0.16929-0.02524,0.25313-0.0415L27.75181,46.07695z"/>
<path fill="#00AEF3" d="M46.30149,27.99681c-0.01558,0.08461-0.02592,0.16997-0.04226,0.2542l-0.08164-0.48323
	C46.22213,27.84311,46.25923,27.92141,46.30149,27.99681c0.24721-1.34816,0.37712-2.72852,0.37712-4.10814
	c0-3.05995-0.59901-6.02861-1.78235-8.82243c-1.14168-2.69956-2.77489-5.12365-4.85789-7.20481
	c-2.08002-2.08155-4.50532-3.71507-7.20374-4.85683c-2.79344-1.18219-5.7621-1.7809-8.82129-1.7809
	c-1.44233,0-2.88618,0.13554-4.29218,0.405c-0.00304,0.00039-0.00668,0.00069-0.01041,0.00183
	c0.07868,0.04158,0.15887,0.07868,0.23603,0.12216l-0.47655-0.07427c0.08012-0.01558,0.16032-0.03193,0.24051-0.04789
	c-1.9286-1.02553-4.09704-1.573-6.29284-1.573c-3.58408,0-6.95358,1.39557-9.48795,3.93071C1.39634,6.52226,0,9.89251,0,13.47652
	c0,2.28124,0.58646,4.52387,1.68809,6.50553c0.01406-0.08239,0.02448-0.16517,0.04006-0.24681l0.0824,0.47472
	c-0.04303-0.07457-0.08012-0.15219-0.12246-0.22791C1.4646,21.26596,1.34663,22.578,1.34663,23.88868
	c0,3.05995,0.59909,6.02815,1.78235,8.82273c1.14024,2.70032,2.7749,5.12333,4.85568,7.2045
	c2.08231,2.08079,4.50532,3.71688,7.20595,4.85561c2.79344,1.18479,5.76278,1.78387,8.82274,1.78387
	c1.3318,0,2.6665-0.12102,3.96933-0.35226c-0.07571-0.04303-0.15363-0.08126-0.23086-0.12619l0.484,0.08468
	c-0.08385,0.01627-0.16777,0.0263-0.25313,0.0415c2.00728,1.13583,4.28039,1.73932,6.60093,1.73932
	c3.58408,0,6.95206-1.39375,9.48644-3.92958C46.60519,41.48002,48,38.10977,48,34.52531
	C48,32.23631,47.41057,29.98631,46.30149,27.99681z"/>
<path fill="#FFFFFF" d="M24.10395,37.76975c-8.053,0-11.65487-3.95854-11.65487-6.92606c0-1.52184,1.12321-2.5882,2.67174-2.5882
	c3.44596,0,2.55368,4.94812,8.98312,4.94812c3.29081,0,5.10882-1.78722,5.10882-3.61639c0-1.09973-0.54268-2.31903-2.71036-2.85319
	l-7.16209-1.78828c-5.76803-1.44613-6.81477-4.56431-6.81477-7.49549c0-6.08646,5.73018-8.37105,11.11143-8.37105
	c4.95663,0,10.80037,2.73924,10.80037,6.39051c0,1.5645-1.35476,2.47426-2.90252,2.47426c-2.94122,0-2.3993-4.07066-8.32323-4.07066
	c-2.93962,0-4.56834,1.33135-4.56834,3.23623c0,1.90116,2.32206,2.508,4.33748,2.9679l5.30182,1.17658
	c5.80664,1.29319,7.27869,4.68351,7.27869,7.8774C35.56125,34.07695,31.76569,37.76975,24.10395,37.76975z"/>
</g></svg>