<svg xmlns="http://www.w3.org/2000/svg" xmlns:xlink="http://www.w3.org/1999/xlink" x="0px" y="0px" width="48px" height="48px" viewBox="0 0 48 48"><g >
<path d="M20.17162,18.77228h2.21782c0,0-1.68977-8.39604-9.87459-8.39604S0,16.9769,0,23.78878s3.85479,13.83498,11.9868,13.83498
	s10.82508-7.49835,10.82508-10.29703h-2.37624c0,0-0.95049,8.29043-8.07921,8.29043S2.27063,29.49175,2.27063,23.84159
	S6.0198,12.48845,12.46205,12.48845S20.17162,18.77228,20.17162,18.77228z"/>
<path fill="#1F92A8" d="M42.9835,23.07591c3.27393-1.0033,3.90759-3.25632,3.90759-5.49175
	c0-2.34104-1.16172-6.44224-5.86139-6.44224s-14.36304,0-14.36304,0v25.71617c0,0,11.24753,0,14.52145,0
	c3.27393,0,6.81188-3.32673,6.81188-7.0231C48,26.64906,46.50384,23.86799,42.9835,23.07591z M31.15512,14.78548h7.76238
	c1.91507,0,3.46754,1.55247,3.46754,3.46754c0,1.91509-1.55247,3.46756-3.46754,3.46756h-7.76238V14.78548z M39.46315,33.26733
	h-8.30804v-8.0264h8.30804c2.21643,0,4.0132,1.79677,4.0132,4.0132S41.67958,33.26733,39.46315,33.26733z"/>
</g></svg>