<svg xmlns="http://www.w3.org/2000/svg" xmlns:xlink="http://www.w3.org/1999/xlink" x="0px" y="0px" width="48px" height="48px" viewBox="0 0 48 48"><g >
<path fill="#00B588" d="M45.04031,23.86249c-1.23651,0.28503-2.43256,0.4108-3.50921,0.4108
	c-6.05619,0-10.71894-4.22966-10.71894-11.58407c0-3.60472,1.39373-5.47936,3.36452-5.47936
	c1.87501,0,3.1249,1.68226,3.1249,5.09503c0,1.94044-0.5197,4.067-0.90343,5.32512c0,0,1.86626,3.25562,6.96952,2.25648
	c1.08365-2.40569,1.67265-5.52128,1.67265-8.25428C45.04031,4.27778,41.2909,0,34.41716,0
	C27.35184,0,23.2179,5.4316,23.2179,12.59365c0,7.095,3.31669,13.18517,8.78593,15.96012
	c-2.29979,4.60044-5.22612,8.6528-8.27802,11.70607c-5.53721-6.69365-10.54292-15.62348-12.59698-33.04998H2.9597
	c3.77423,29.0231,15.0219,38.26446,17.99584,40.03901c1.68233,1.0094,3.13072,0.96137,4.66894,0.09578
	c2.41478-1.37305,9.66525-8.62222,13.68398-17.11358c1.68691-0.00465,3.7136-0.19826,5.73185-0.65435V23.86249z"/>
</g></svg>