<svg xmlns="http://www.w3.org/2000/svg" xmlns:xlink="http://www.w3.org/1999/xlink" x="0px" y="0px" width="48px" height="48px" viewBox="0 0 48 48"><g >
<path fill="#020302" d="M46,48H2c-1.10457,0-2-0.89543-2-2V2c0-1.10457,0.89543-2,2-2h44c1.10457,0,2,0.89543,2,2v44
	C48,47.10457,47.10457,48,46,48z"/>
<ellipse fill="#FFFFFF" cx="34.40435" cy="19.30125" rx="5.09062" ry="5.07266"/>
<ellipse fill="#FFFFFF" cx="22.9342" cy="20.74773" rx="4.58266" ry="4.56586"/>
<ellipse fill="#FFFFFF" cx="12.53263" cy="22.05062" rx="4.1247" ry="4.10827"/>
<path fill="#FFFFFF" d="M12.53279,27.09704c-2.61533,0-4.5328,2.29562-4.5328,4.66717v1.59626l0,0
	c0,0.22563,0.18467,0.41094,0.41187,0.41094h0.14624h7.94874h0.14563c0.22797,0,0.41267-0.18531,0.41267-0.41094l0,0v-1.59626
	C17.06515,29.39266,15.14809,27.09704,12.53279,27.09704z"/>
<path fill="#FFFFFF" d="M22.93404,26.35455c-2.90595,0-5.03687,2.55091-5.03687,5.18624v1.77376l0,0
	c0,0.25091,0.20531,0.45686,0.45779,0.45686h0.1625h8.83251h0.16189c0.25373,0,0.45875-0.20595,0.45875-0.45686l0,0v-1.77376
	C27.97062,28.90546,25.83999,26.35455,22.93404,26.35455z"/>
<path fill="#FFFFFF" d="M34.40374,25.53077c-3.22877,0-5.59626,2.83408-5.59626,5.7625v1.97062l0,0
	c0,0.27875,0.22813,0.50752,0.50874,0.50752h0.18064h9.81376h0.17936c0.28189,0,0.51002-0.22877,0.51002-0.50752l0,0v-1.97062
	C40,28.36485,37.63279,25.53077,34.40374,25.53077z"/>
</g></svg>