<svg xmlns="http://www.w3.org/2000/svg" xmlns:xlink="http://www.w3.org/1999/xlink" x="0px" y="0px" width="48px" height="48px" viewBox="0 0 48 48"><g >
<path fill="#D20300" d="M45,48H3c-1.65685,0-3-1.34315-3-3V3c0-1.65685,1.34315-3,3-3h42c1.65685,0,3,1.34315,3,3v42
	C48,46.65685,46.65685,48,45,48z"/>
<path fill="#FFFFFF" d="M22.11245,30.94607l-1.17312-3.18879c0,0-1.90623,2.12599-4.76494,2.12599
	c-2.52945,0-4.32544-2.19936-4.32544-5.7183c0-4.50849,2.2724-6.12134,4.50865-6.12134c3.2254,0,4.25171,2.08931,5.13156,4.76522
	l1.17312,3.66553c1.17271,3.55535,3.37207,6.41432,9.71325,6.41432c4.54552,0,7.62447-1.39273,7.62447-5.05807
	c0-2.96902-1.68642-4.5087-4.83873-5.24183l-2.34581-0.51316c-1.61264-0.36657-2.08911-1.02632-2.08911-2.126
	c0-1.24628,0.98942-1.9794,2.60246-1.9794c1.75944,0,2.71239,0.6599,2.85912,2.23606l3.66532-0.43993
	c-0.29318-3.29891-2.56565-4.6551-6.30461-4.6551c-3.29878,0-6.52446,1.24628-6.52446,5.24161
	c0,2.49256,1.2096,4.06878,4.25166,4.8019l2.49289,0.58632c1.86936,0.43999,2.49222,1.20967,2.49222,2.27273
	c0,1.35599-1.31944,1.9059-3.81207,1.9059c-3.70215,0-5.24142-1.94265-6.12134-4.61856l-1.2096-3.66526
	c-1.53926-4.76521-3.99534-6.52464-8.87061-6.52464C10.85919,15.11129,8,18.52011,8,24.31158
	c0,5.5717,2.85919,8.57713,7.99104,8.57713C20.13284,32.88871,22.11245,30.94607,22.11245,30.94607L22.11245,30.94607z"/>
</g></svg>