<svg xmlns="http://www.w3.org/2000/svg" xmlns:xlink="http://www.w3.org/1999/xlink" x="0px" y="0px" width="48px" height="48px" viewBox="0 0 48 48"><g >
<path fill="#333333" d="M22.81235,0.26375L1.17026,10.37494c-0.64935,0.30337-0.64666,1.22771,0.00445,1.5273l21.80884,10.03483
	c0.64513,0.29684,1.38778,0.29684,2.03291,0l21.80885-10.03483c0.6511-0.29959,0.65379-1.22392,0.00445-1.5273L25.18764,0.26375
	C24.43493-0.08792,23.56506-0.08792,22.81235,0.26375z"/>
<path fill="#333333" d="M46.82974,23.35217l-4.46971-2.08825c-0.64787-0.30268-1.39613-0.30486-2.04575-0.00595l-15.29784,7.03894
	c-0.64513,0.29684-1.38778,0.29684-2.03291,0L7.68571,21.25797c-0.64962-0.29891-1.39788-0.29673-2.04575,0.00596l-4.46971,2.08825
	c-0.64935,0.30338-0.64665,1.22771,0.00445,1.5273L22.98354,34.9143c0.64513,0.29684,1.38778,0.29684,2.03291,0l21.80885-10.03483
	C47.4764,24.57988,47.47909,23.65554,46.82974,23.35217z"/>
<path fill="#333333" d="M46.82974,36.21524l-4.46971-2.08825c-0.64787-0.30268-1.39613-0.30486-2.04575-0.00595l-15.29784,7.03894
	c-0.64513,0.29684-1.38778,0.29684-2.03291,0L7.68571,34.12103c-0.64962-0.29891-1.39788-0.29673-2.04575,0.00596l-4.46971,2.08825
	c-0.64935,0.30338-0.64665,1.22771,0.00445,1.52729l21.80884,10.03483c0.64513,0.29684,1.38778,0.29684,2.03291,0l21.80885-10.03483
	C47.4764,37.44295,47.47909,36.51861,46.82974,36.21524z"/>
</g></svg>