<svg xmlns="http://www.w3.org/2000/svg" xmlns:xlink="http://www.w3.org/1999/xlink" x="0px" y="0px" width="48px" height="48px" viewBox="0 0 48 48"><g >
<path fill="#C60D00" d="M7.03213,23.10837c-0.76181,1.24979-1.08333,5.18385-0.82,7.79621
	c0.0932,0.86244,0.24624,1.57964,0.46639,2.00905c0.30435,0.59303,0.81737,0.94627,1.40261,0.96644
	c0.37408,0.021,0.60705-0.04551,7.65052-2.36327c0,0,3.13108-1.01975,3.1442-1.02672
	c0.78026-0.20118,1.30558-0.93585,1.35829-1.87514c0.04949-0.96029-0.43692-1.81133-1.23592-2.11658
	c0,0-2.20633-0.92093-2.21188-0.92093c-7.56886-3.19331-7.90793-3.31921-8.29094-3.32438
	C7.91316,22.23034,7.39076,22.53116,7.03213,23.10837z"/>
<path fill="#C60D00" d="M23.96529,46.90392c0.1223-0.36209,0.13684-0.61222,0.15686-8.18206c0,0,0.01799-3.34448,0.02017-3.37942
	c0.04911-0.81782-0.46638-1.56292-1.31885-1.90055c-0.87421-0.34372-1.81515-0.13032-2.34272,0.54399
	c0,0-1.54282,1.87521-1.54874,1.87521c-5.30577,6.37066-5.52419,6.66451-5.65376,7.04234
	c-0.07866,0.22472-0.11202,0.45829-0.08338,0.69523c0.03172,0.33584,0.17958,0.67093,0.42837,0.98053
	c1.22827,1.49723,7.12602,3.71624,9.00873,3.38819C23.28775,47.84411,23.76141,47.468,23.96529,46.90392z"/>
<path fill="#C60D00" d="M35.92545,44.26959c1.77752-0.72507,5.65871-5.77253,5.93119-7.7141
	c0.09305-0.67604-0.11337-1.25857-0.56821-1.62943c-0.29798-0.22907-0.52802-0.3192-7.56594-2.68239
	c0,0-3.08774-1.04344-3.12793-1.06354c-0.74562-0.29565-1.60056-0.02279-2.17424,0.70415
	c-0.59333,0.74247-0.68571,1.7185-0.2104,2.46202l1.24364,2.06754c4.17962,6.94344,4.49769,7.4342,4.7995,7.67466
	C34.71779,44.46289,35.30932,44.5249,35.92545,44.26959L35.92545,44.26959z"/>
<path fill="#C60D00" d="M32.29087,26.39781c8.00016-1.98101,8.30833-2.08771,8.62438-2.29939
	c0.48431-0.33232,0.7271-0.89123,0.68571-1.57259c0-0.02272,0.00345-0.04281,0-0.06808
	c-0.20523-2.00816-3.64958-7.23572-5.34461-8.08324c-0.59985-0.29565-1.20218-0.27548-1.69766,0.06553
	c-0.30945,0.2074-0.53769,0.517-4.82041,6.50892c0,0-1.93655,2.69821-1.96009,2.72356
	c-0.51085,0.63314-0.51602,1.54544-0.01882,2.32465c0.51557,0.80643,1.38933,1.20083,2.18916,0.97341
	c0,0-0.03329,0.05781-0.04222,0.06921C30.30003,26.88579,31.00621,26.71003,32.29087,26.39781z"/>
<path fill="#C60D00" d="M24.25682,19.64055L24.25682,19.64055c-0.13677-3.2422-1.08918-17.6838-1.20165-18.35369
	c-0.16413-0.60525-0.62497-1.03812-1.29276-1.2105c-2.03965-0.51865-9.8444,1.71955-11.29282,3.24655
	c-0.46339,0.4951-0.63614,1.10733-0.49713,1.646c0.22607,0.48026,9.89952,16.04395,9.89952,16.04395
	c1.43087,2.37099,2.59669,2.00366,2.97752,1.88204C23.23002,22.77433,24.38893,22.40692,24.25682,19.64055z"/>
</g></svg>