<svg xmlns="http://www.w3.org/2000/svg" xmlns:xlink="http://www.w3.org/1999/xlink" x="0px" y="0px" width="48px" height="48px" viewBox="0 0 48 48"><g >
<path fill="#F26E20" d="M0.90231,24.60858c-0.01711-0.11867-0.1021-0.20045-0.20687-0.20045
	c-0.10531,0-0.19244,0.08446-0.20687,0.20045C0.48857,24.60965,0,29.07256,0,29.07256l0.48857,4.36509
	c0.0139,0.11707,0.10103,0.20152,0.20687,0.20152c0.10424,0,0.18923-0.08232,0.20633-0.20045l0.55593-4.36617L0.90231,24.60858z"/>
<path fill="#F26E20" d="M8.6019,20.49098c-0.20045,0-0.36616,0.16411-0.37578,0.37258l-0.38915,8.21275l0.38915,5.3075
	c0.01016,0.2074,0.17533,0.37097,0.37578,0.37097c0.19938,0,0.36456-0.1641,0.37632-0.37204v0.0016l0.43993-5.30803
	l-0.43993-8.21275C8.96646,20.65508,8.80128,20.49098,8.6019,20.49098z"/>
<path fill="#F26E20" d="M4.61686,23.34545c-0.15395,0-0.27957,0.12294-0.29186,0.28705l-0.43833,5.44167L4.325,34.3389
	c0.01176,0.16304,0.13791,0.28598,0.29186,0.28598c0.15235,0,0.27796-0.12294,0.29133-0.28598l0.4982-5.26473l-0.4982-5.44274
	C4.89483,23.4684,4.76921,23.34545,4.61686,23.34545z"/>
<path fill="#F26E20" d="M12.65161,34.75424c0.24856,0,0.45062-0.20045,0.46078-0.45704l0.38167-5.21823l-0.38113-10.93412
	c-0.01016-0.25658-0.21221-0.45704-0.46078-0.45704c-0.2507,0-0.45329,0.20099-0.46131,0.45757l-0.33837,10.93305l0.33837,5.22037
	C12.19885,34.55325,12.40144,34.75424,12.65161,34.75424z"/>
<path fill="#F26E20" d="M20.9424,34.77883c0.34211,0,0.62435-0.28171,0.63076-0.62809v0.00374v-0.00374l0.2662-5.06856
	l-0.2662-12.62809c-0.00588-0.34585-0.28865-0.62809-0.63076-0.62809c-0.34264,0-0.62542,0.2817-0.63076,0.62862l-0.23787,12.62328
	c0,0.00802,0.23787,5.07604,0.23787,5.07604C20.31698,34.49712,20.60029,34.77883,20.9424,34.77883z"/>
<path fill="#F26E20" d="M16.76547,34.75905c0.29774,0,0.53775-0.23894,0.54577-0.54363v0.00374l0.32393-5.13912L17.3107,18.06682
	c-0.00802-0.30469-0.24803-0.5431-0.54577-0.5431c-0.29988,0-0.53989,0.23841-0.5463,0.5431l-0.28812,11.01376l0.28866,5.13805
	C16.22558,34.52011,16.46559,34.75905,16.76547,34.75905z"/>
<path fill="#F26E20" d="M41.88694,22.56448c-0.83763,0-1.63678,0.16945-2.36483,0.47468
	c-0.48643-5.51009-5.10704-9.83242-10.74328-9.83242c-1.37913,0-2.72351,0.27155-3.91073,0.73072
	c-0.46131,0.17854-0.58426,0.36242-0.58854,0.71896V34.0604c0.00481,0.37418,0.29507,0.68582,0.66016,0.72271
	c0.0155,0.0016,16.83763,0.01016,16.94668,0.01016c3.37619,0,6.11359-2.7374,6.11359-6.11413S45.26313,22.56448,41.88694,22.56448z"/>
</g></svg>