<svg xmlns="http://www.w3.org/2000/svg" xmlns:xlink="http://www.w3.org/1999/xlink" x="0px" y="0px" width="48px" height="48px" viewBox="0 0 48 48"><g >
<path fill="#8BA651" d="M47.99835,18.67921c0-1.83699-0.79081-12.7585-0.79081-12.7585c0-1.73125-0.64169-2.89155-1.44736-3.68239
	c-0.78784-0.80267-1.94817-1.44733-3.67925-1.44733c0,0-10.92167-0.79084-12.7616-0.79084
	c-2.63935,0-4.40016-0.07622-7.70759,3.23422C20.00339,4.83974,2.17669,22.66924,1.42382,23.41914
	c-0.7501,0.7501-3.28699,3.70898,1.04006,8.03587l14.07964,14.08261c4.32986,4.32986,7.28887,1.78716,8.03881,1.03726
	c0.7499-0.75024,18.5794-18.57974,20.18477-20.18514C48.07754,23.07934,47.99835,21.32154,47.99835,18.67921z"/>
<path fill="#FFFFFF" d="M28.9455,24.56924l6.10847,2.90101l-2.24675,4.02006l-5.64989-3.68949
	c-0.13098-0.08645-0.27976-0.13098-0.42855-0.13098c-0.13098,0-0.26162,0.03267-0.38074,0.10094
	c-0.25304,0.14581-0.39885,0.42263-0.37807,0.71395l0.46716,6.68283h-4.52236c0,0-0.01206,0-0.02078,0
	c0.01764-0.05672,0.37179-6.6858,0.37179-6.6858c0.02081-0.29132-0.12486-0.56811-0.3779-0.71395
	c-0.25601-0.14581-0.56828-0.13395-0.80912,0.0297l-5.49249,3.73108l-2.45182-3.90033l6.16192-3.05902
	c0.26476-0.12469,0.43432-0.39277,0.43432-0.68719c0-0.29463-0.16956-0.56236-0.43432-0.68723l-6.11128-2.90114l2.24628-4.01942
	l5.64739,3.69229c0.24084,0.16068,0.55311,0.17834,0.80912,0.0297c0.25304-0.14581,0.39872-0.42247,0.3779-0.71412l-0.46419-6.68266
	h4.52533l-0.35696,6.68266c-0.02078,0.29165,0.12503,0.56831,0.37807,0.71412c0.25571,0.14865,0.57142,0.13098,0.80929-0.0297
	l5.49253-3.73121l2.45162,3.90097l-6.15598,3.05851c-0.26493,0.12486-0.43449,0.3926-0.43449,0.68723
	C28.51101,24.17647,28.68057,24.44454,28.9455,24.56924z"/>
<path fill="#FFFFFF" d="M39.39438,11.75354c-1.59977,0-2.89172-1.29493-2.89172-2.89142c0-1.59665,1.29196-2.88861,2.89172-2.88861
	c1.59054,0,2.88253,1.29196,2.88253,2.88861C42.27691,10.45861,40.98492,11.75354,39.39438,11.75354z"/>
</g></svg>