<svg xmlns="http://www.w3.org/2000/svg" xmlns:xlink="http://www.w3.org/1999/xlink" x="0px" y="0px" width="48px" height="48px" viewBox="0 0 48 48"><g >
<path fill="#1FB446" d="M45.277,21.87963c-5.49203-5.49279-10.98483-10.98288-16.47246-16.47749
	c-0.80249-0.78817-1.55661-1.68833-2.61559-2.14066c-1.05201-0.49956-2.27045-0.57013-3.40001-0.32951
	c-0.98841,0.22746-1.88108,0.76856-2.5948,1.48177C14.01987,10.58994,7.84354,16.7668,1.66733,22.94042
	c-0.71115,0.70933-1.26618,1.59582-1.49299,2.58164c-0.50716,1.77528,0.12915,3.76345,1.4294,5.04098
	c4.35369,4.35564,8.70999,8.70496,13.06176,13.06305c0.97266,0.99162,2.34296,1.56873,3.73325,1.55234
	c3.56128,0.02013,7.12178-0.00258,10.68048,0.01135c1.60201,0.10205,3.22235-0.47001,4.35629-1.61788
	c3.94485-3.93349,7.87834-7.88093,11.82139-11.81686c0.64251-0.65141,1.33803-1.26128,1.86094-2.01719
	c0.96131-1.38412,1.12001-3.24751,0.55878-4.81546C47.23807,23.6637,46.18606,22.79554,45.277,21.87963z"/>
<path fill="#FFFFFF" d="M14.44499,28.8924c-0.67025,0.79759-1.84947,0.58845-2.75672,0.4473
	c-0.79939-0.6407-1.53144-1.38346-2.17653-2.17653c-0.37286-0.43905,0.10463-0.89771,0.40008-1.20709
	c4.06264-4.04432,8.11018-8.1058,12.16405-12.15708c0.54497-0.52988,1.03821-1.12013,1.64988-1.57492
	c0.52665-0.26334,0.93357,0.3068,1.28386,0.60909c0.74533,0.79514,1.59066,1.49996,2.27419,2.35172
	c0.35287,0.42087-0.03406,0.90907-0.34267,1.21148C22.77141,20.55734,18.60091,24.71764,14.44499,28.8924z"/>
<path fill="#FFFFFF" d="M27.22716,38.47674c-0.64767,0.72831-1.32488,1.44397-2.08583,2.0524
	c-0.69799,0.1689-1.44073,0.1298-2.14763,0.02775c-0.67902-0.34396-1.13832-1.00415-1.69516-1.51183
	c-0.3957-0.38564-1.01562-0.96518-0.50471-1.52204c0.86119-0.95626,1.7816-1.86984,2.73413-2.73916
	c0.35467-0.29855,0.88377-0.15121,1.1698,0.17392c0.81397,0.78624,1.61595,1.58756,2.40205,2.40644
	C27.40921,37.6389,27.57745,38.15923,27.22716,38.47674z"/>
<path fill="#FFFFFF" d="M26.98396,27.56068c-2.31329,2.31071-4.63341,4.61768-6.93277,6.94219
	c-0.64573,0.79126-1.7816,0.54058-2.66796,0.46756c-0.85242-0.54936-1.5157-1.36075-2.20182-2.09912
	c-0.45724-0.43337-0.02954-1.0004,0.32254-1.32669c2.31587-2.30697,4.62903-4.61329,6.9329-6.93341
	c0.42086-0.40886,0.80004-0.87951,1.30901-1.1907c0.5091-0.21856,0.88197,0.29984,1.22025,0.5909
	c0.77049,0.82468,1.64743,1.55157,2.3498,2.43545C27.62467,26.83998,27.26561,27.28097,26.98396,27.56068z"/>
</g></svg>