<svg xmlns="http://www.w3.org/2000/svg" xmlns:xlink="http://www.w3.org/1999/xlink" x="0px" y="0px" width="48px" height="48px" viewBox="0 0 48 48"><g >
<path fill="#111111" d="M7.15294,34.07059c0-3.83453,1.62895-5.85893,4.8-6.72941C11.45098,26.08627,11.2,25.16079,11.2,24.56471
	c0-2.20661,2.78837-4.94118,4.89412-4.94118c0.53333,0,1.16078,0.14118,1.88235,0.42353
	c-1.50588-4.29804-2.58824-7.56078-3.24706-9.78823c-0.86017-2.90307-2.01157-6.67816,0-8.94118
	C15.51373,0.43922,16.56471,0,17.88235,0c2.25882,0,4.97255,4.62745,8.14118,13.88235l0.8,2.30588
	c1.20033-3.00082,4.88375-15.29412,9.03529-15.29412c1.2549,0,2.24314,0.42353,2.96471,1.27059
	c2.02848,2.28204,0.83306,5.66133,0,8.61176c-0.65882,2.2902-1.69412,5.42745-3.10588,9.41177
	c1.78823,0.43921,3.07451,1.28627,3.85883,2.54118c0.84706,1.34902,1.27059,3.43529,1.27059,6.25882
	c0,5.58432-1.66275,10.14902-4.98824,13.69412C32.47059,46.22745,28.17255,48,22.96471,48
	c-6.43163,0-12.0802-3.77773-14.58824-8.89412C7.56079,37.41177,7.15294,35.73333,7.15294,34.07059z M10.21177,33.83529
	c0,1.96574,1.31226,4.33846,2.49412,5.92941c2.76824,3.57846,6.38809,5.12941,10.63529,5.12941
	c4.04706,0,7.45098-1.52157,10.21177-4.56471c2.72941-3.01176,4.09412-6.82353,4.09412-11.43529
	c0-1.57722-0.00425-3.93641-1.17647-4.94118c-0.84706-0.72157-2.5098-1.34902-4.98823-1.88235
	c-2.47843-0.56471-5.11373-0.84706-7.90588-0.84706c-1.07907,0-1.64706,0.16292-1.64706,1.22353
	c0,1.28627,0.72157,2.19608,2.16471,2.72941c1.56863,0.65882,4.15686,0.98824,7.76471,0.98824h1.31765
	c0.73756,0,1.39246,0.3853,1.6,1.97647c-1.3528,1.3528-3.58117,1.53439-5.08236,2.68235
	c-1.2549,0.9098-2.25882,1.99216-3.01176,3.24706C25.96078,35.29412,25.6,36.4549,25.6,37.55294
	c0,0.65882,0.15686,1.45882,0.47059,2.4c0.3451,1.03529,0.51761,1.7098,0.51761,2.02353
	c-0.00828,0.29124-0.09408,0.49412-0.44696,0.6353c-1.4588,0.32941-2.12555-0.38432-2.753-1.57647
	c-0.53333-1.00392-0.83137-2.2902-0.89412-3.85882c-0.18997,0.06332-0.87779,0.04706-1.08235,0.04706
	c0.03137,0.15686,0.04706,0.3451,0.04706,0.5647c0,0.94118-0.36078,1.74118-1.08235,2.4
	c-0.72157,0.65882-1.56863,0.98824-2.54118,0.98824c-1.47451,0-2.96471-0.70588-4.47059-2.11765
	c-1.50588-1.44314-2.25882-2.8549-2.25882-4.23529c0-0.81907,0.35039-1.24451,0.89412-1.78823
	c0.78431,0.97255,1.31765,1.64706,1.6,2.02353c1.31765,1.85098,2.5098,2.77647,3.57647,2.77647
	c0.59893,0,1.08235-0.44372,1.08235-0.75294c0-0.25098-0.18823-0.70588-0.56471-1.3647
	c-0.55047-1.03213-2.72209-3.91092-3.85882-4.84706c-0.47059-0.43921-0.81569-0.65882-1.03529-0.65882
	C11.74109,30.21177,10.21177,31.57092,10.21177,33.83529z M14.44706,24.84706c0,0.40784,0.25098,1.11373,0.75294,2.11765
	c0.92526,1.78443,3.10059,4.66358,4.75294,6.11765c0.75294,0.62745,1.31765,0.94118,1.69412,0.94118
	c0.48287,0,0.98824-0.57428,0.98824-1.08235c0-0.37647-0.28235-1.28627-0.84706-2.72941c-0.77729-1.88772-2.43055-5.34281-4-6.63529
	c-0.50196-0.47059-0.98824-0.70588-1.45882-0.70588C15.65803,22.87059,14.44706,24.10072,14.44706,24.84706z M16.56471,4.51765
	c0,1.06667,0.37647,2.7451,1.12941,5.03529c0.6902,2.22745,1.72549,5.20784,3.10588,8.94118
	c0.71058-0.42635,2.43125-0.2239,3.34118-0.14118l-3.24706-9.41177C20.01569,6.43137,19.32549,4.8,18.82353,4.04706
	C18.41569,3.38824,18.00784,3.05882,17.6,3.05882C16.91752,3.05882,16.56471,3.82956,16.56471,4.51765z M24.37647,28.51765
	c0.28235,0.72157,0.58039,1.50588,0.89412,2.35294c0.62745-0.72157,1.2549-1.31765,1.88235-1.78823
	C26.19571,28.8909,25.42524,28.86724,24.37647,28.51765z M29.31765,18.91765l3.15294,0.56471
	c1.41177-3.8902,2.49412-7.01176,3.24706-9.36471c0.43381-1.40555,1.69067-4.60948,0.84706-5.69412
	C36.27953,3.92448,35.40077,3.77525,34.4,5.36471c-0.59608,0.9098-1.27059,2.49412-2.02353,4.75294L29.31765,18.91765z"/>
</g></svg>