<svg xmlns="http://www.w3.org/2000/svg" xmlns:xlink="http://www.w3.org/1999/xlink" x="0px" y="0px" width="48px" height="48px" viewBox="0 0 48 48"><g >
<path fill="#FFFFFF" d="M48,24c0,13.25491-10.74522,23.99987-24,23.99987S0,37.25491,0,24C0,10.74522,10.74522,0.00013,24,0.00013
	S48,10.74522,48,24"/>
<path fill="#BD081C" d="M23.97145,2.25318C11.96105,2.25318,2.22463,11.9896,2.22463,24
	c0,9.21299,5.73188,17.08208,13.82164,20.25073c-0.19021-1.72064-0.36175-4.35987,0.07557-6.23819
	c0.39505-1.69722,2.55008-10.8097,2.55008-10.8097s-0.65056-1.30266-0.65056-3.22869c0-3.02385,1.75266-5.2814,3.93495-5.2814
	c1.85531,0,2.75163,1.39299,2.75163,3.06335c0,1.86584-1.188,4.65539-1.80116,7.24071
	c-0.51232,2.16456,1.08551,3.92971,3.22038,3.92971c3.86524,0,6.83625-4.07552,6.83625-9.95849
	c0-5.20683-3.74144-8.84742-9.08377-8.84742c-6.18763,0-9.81961,4.64112-9.81961,9.43754c0,1.86906,0.72002,3.87337,1.61839,4.96285
	c0.17759,0.21527,0.20373,0.40405,0.15086,0.6237c-0.16514,0.68697-0.53199,2.16405-0.60402,2.46627
	c-0.0949,0.39812-0.31521,0.48248-0.72722,0.29086c-2.71624-1.26434-4.41427-5.2352-4.41427-8.42482
	c0-6.86006,4.98423-13.15994,14.36892-13.15994c7.54392,0,13.40669,5.37563,13.40669,12.55992
	c0,7.4948-4.7257,13.52656-11.28484,13.52656c-2.20353,0-4.27524-1.14479-4.98433-2.49712c0,0-1.09038,4.15217-1.35476,5.16964
	c-0.49112,1.88896-1.8164,4.25675-2.70293,5.7011c2.03484,0.62992,4.19713,0.96979,6.43895,0.96979
	c12.01053,0,21.74694-9.73641,21.74694-21.74694C45.71839,11.9896,35.98199,2.25318,23.97145,2.25318z"/>
</g></svg>