<svg xmlns="http://www.w3.org/2000/svg" xmlns:xlink="http://www.w3.org/1999/xlink" x="0px" y="0px" width="48px" height="48px" viewBox="0 0 48 48"><g >
<path fill="#E8A723" d="M31.12806,2.95564c-0.72973-2.24588-3.14193-3.47495-5.38779-2.74522s-3.47495,3.14192-2.74522,5.38779
	l11.05633,34.01661c0.75905,2.09814,3.02547,3.27717,5.20114,2.65093c2.26931-0.6532,3.65282-3.0634,2.92856-5.29243
	C42.15357,36.88866,31.12806,2.95564,31.12806,2.95564z"/>
<path fill="#3EB890" d="M13.99657,8.522c-0.72973-2.24588-3.14193-3.47495-5.38779-2.74522S5.13383,8.9187,5.86356,11.16458
	l11.05633,34.01661c0.75905,2.09814,3.02547,3.27718,5.20114,2.65093c2.26931-0.65321,3.65281-3.0634,2.92856-5.29243
	C25.02208,42.45502,13.99657,8.522,13.99657,8.522z"/>
<path fill="#E01765" d="M45.04435,31.12819c2.24588-0.72973,3.47495-3.14193,2.74522-5.38779s-3.14192-3.47495-5.38779-2.74522
	L8.38517,34.05151c-2.09814,0.75905-3.27717,3.02547-2.65093,5.20114c0.6532,2.26931,3.0634,3.65281,5.29243,2.92856
	C11.11134,42.1537,45.04435,31.12819,45.04435,31.12819z"/>
<path fill="#472A49" d="M15.47503,40.73585c2.21416-0.71942,5.06799-1.64669,8.13014-2.64164
	c-0.71939-2.21407-1.64677-5.06822-2.6419-8.13092l-8.13067,2.64268L15.47503,40.73585z"/>
<path fill="#CC2027" d="M32.60652,35.16949c3.07377-0.99873,5.93052-1.92694,8.13013-2.64164
	c-0.71952-2.21446-1.6471-5.06926-2.64244-8.13259l-8.13067,2.64268L32.60652,35.16949z"/>
<path fill="#70CADB" d="M39.478,13.9967c2.24588-0.72973,3.47495-3.14193,2.74522-5.38779
	c-0.72973-2.24587-3.14192-3.47495-5.3878-2.74522L2.81881,16.92002c-2.09814,0.75905-3.27717,3.02547-2.65093,5.20114
	c0.6532,2.26931,3.0634,3.65281,5.29243,2.92856C5.54498,25.02221,39.478,13.9967,39.478,13.9967z"/>
<path fill="#1A937D" d="M9.907,23.6049c2.21439-0.7195,5.06888-1.64698,8.1318-2.64218
	c-0.99878-3.07391-1.92707-5.9309-2.6419-8.13092l-8.13233,2.64322L9.907,23.6049z"/>
<path fill="#65863A" d="M27.03849,18.03854c3.07442-0.99894,5.9318-1.92736,8.13181-2.64218
	c-0.99903-3.07468-1.92754-5.93235-2.64244-8.13259l-8.13233,2.64323L27.03849,18.03854z"/>
</g></svg>