<svg xmlns="http://www.w3.org/2000/svg" xmlns:xlink="http://www.w3.org/1999/xlink" x="0px" y="0px" width="48px" height="48px" viewBox="0 0 48 48"><g >
<path fill="#35465D" d="M44,48H4c-2.20914,0-4-1.79086-4-4V4c0-2.20914,1.79086-4,4-4h40c2.20914,0,4,1.79086,4,4v40
	C48,46.20914,46.20914,48,44,48z"/>
<path fill="#FFFFFF" d="M31.56,32.0157c-0.55665,0.26505-1.62151,0.4965-2.41545,0.51705
	c-2.39655,0.06435-2.8608-1.68315-2.88135-2.9517V20.2617h6.01169v-4.53225H26.2851V8.10279c0,0-4.31385,0-4.3857,0
	c-0.0717,0-0.1977,0.06372-0.21525,0.22412c-0.25635,2.33422-1.34926,6.43067-5.8902,8.06765v3.86715h3.02925v9.78225
	c0,3.3486,2.47125,8.10645,8.99265,7.99515c2.2002-0.0381,4.64354-0.95955,5.18415-1.7535L31.56,32.0157z"/>
</g></svg>