<svg xmlns="http://www.w3.org/2000/svg" xmlns:xlink="http://www.w3.org/1999/xlink" x="0px" y="0px" width="48px" height="48px" viewBox="0 0 48 48"><g >
<path fill="#DC2217" d="M47.52067,14.40299c0,0-0.46905-3.30774-1.90818-4.76436c-1.82526-1.91181-3.8712-1.92128-4.80944-2.03319
	c-6.71693-0.48554-16.79262-0.48554-16.79262-0.48554h-0.02086c0,0-10.07549,0-16.79263,0.48554
	c-0.9383,0.11191-2.98351,0.12138-4.80944,2.03319c-1.43915,1.45662-1.90747,4.76436-1.90747,4.76436S0,18.28732,0,22.17164v3.64157
	c0,3.88428,0.48004,7.76861,0.48004,7.76861s0.46832,3.30776,1.90747,4.76437c1.82593,1.91181,4.2244,1.85136,5.29267,2.05173
	c3.84009,0.36823,16.31986,0.48218,16.31986,0.48218s10.08609-0.01519,16.80302-0.50072
	c0.93823-0.11193,2.98418-0.12138,4.80944-2.03319c1.43913-1.45662,1.90818-4.76437,1.90818-4.76437S48,29.69749,48,25.81321
	v-3.64157C48,18.28732,47.52067,14.40299,47.52067,14.40299z"/>
<path fill="#FFFFFF" d="M19.04457,30.22611l-0.0022-13.48673l12.96982,6.76686L19.04457,30.22611z"/>
</g></svg>