<svg xmlns="http://www.w3.org/2000/svg" xmlns:xlink="http://www.w3.org/1999/xlink" x="0px" y="0px" width="48px" height="48px" viewBox="0 0 48 48"><g >
<path fill="#131418" d="M19.37172,22.39109c0,0,4.54224-0.33744,4.54224-5.66422c0-5.32688-3.71639-7.92643-8.4238-7.92643H6.8253
	H6.57074H0v29.76862h6.57074H6.8253h8.66485c0,0,9.45615,0.29807,9.45615-8.78642
	C24.9463,29.78264,25.35919,22.39109,19.37172,22.39109z M6.8253,14.09113h7.54987h1.11497c0,0,2.1059,0,2.1059,3.09702
	s-1.23882,3.54608-2.64273,3.54608H6.8253V14.09113z M15.09078,33.27836H6.8253v-7.95543h8.66485
	c0,0,3.13825-0.04122,3.13825,4.08797C18.6284,32.85383,16.33296,33.24382,15.09078,33.27836z"/>
<path fill="#131418" d="M37.55814,16.3742c-11.44758,0-11.43723,11.4373-11.43723,11.4373s-0.7856,11.37962,11.43756,11.37962
	c0,0,10.18618,0.5818,10.18618-7.91616h-5.2387c0,0,0.17453,3.20092-4.77293,3.20092c0,0-5.23878,0.35039-5.23878-5.17971h15.42496
	C47.91919,29.29616,49.60675,16.3742,37.55814,16.3742z M42.21455,25.32293h-9.77867c0,0,0.64031-4.5887,5.2387-4.5887
	C42.27304,20.73423,42.21455,25.32293,42.21455,25.32293z"/>
<rect x="31.15419" y="10.55384" fill="#131418" width="12.28149" height="3.66669"/>
</g></svg>