<svg xmlns="http://www.w3.org/2000/svg" xmlns:xlink="http://www.w3.org/1999/xlink" x="0px" y="0px" width="48px" height="48px" viewBox="0 0 48 48"><g >
<path fill-rule="evenodd" clip-rule="evenodd" fill="#009DE2" d="M21.06091,11.29682h13.53967
	c7.26871,0,10.00576,3.67959,9.58316,9.09441c-0.6969,8.92642-6.09389,13.86229-13.25238,13.86229h-3.6141
	c-0.98108,0-1.64121,0.64853-1.9082,2.41101l-1.55056,10.23313c-0.10065,0.66471-0.45025,1.0551-0.97556,1.10234H14.3931
	c-0.79884,0-1.08305-0.61121-0.87394-1.93483l5.18452-32.82645C18.9114,11.9232,19.63108,11.29682,21.06091,11.29682z"/>
<path fill-rule="evenodd" clip-rule="evenodd" fill="#113984" d="M12.59623,0h13.55312c3.81728,0,8.34443,0.12392,11.37318,2.795
	c2.02311,1.78435,3.08484,4.62719,2.83966,7.67912c-0.83112,10.34901-7.02147,16.14543-15.32262,16.14543H18.3552
	c-1.13771,0-1.89185,0.75386-2.21272,2.79566l-1.86529,11.86581c-0.12095,0.7699-0.45469,1.2235-1.0639,1.27819H4.86449
	c-0.92642,0-1.25579-0.70857-1.01337-2.24352L9.86295,2.25172C10.10387,0.72632,10.93824,0,12.59623,0z"/>
<path fill-rule="evenodd" clip-rule="evenodd" fill="#172C70" d="M16.33674,28.21897l2.36694-14.98036
	c0.20772-1.31552,0.9274-1.94179,2.35723-1.94179h13.53974c2.24134,0,4.05208,0.34988,5.47139,0.99485
	c-1.36049,9.21015-7.31746,14.32788-15.11875,14.32788h-6.68437C17.38886,26.61955,16.73159,27.0691,16.33674,28.21897z"/>
</g></svg>