<svg xmlns="http://www.w3.org/2000/svg" xmlns:xlink="http://www.w3.org/1999/xlink" x="0px" y="0px" width="48px" height="48px" viewBox="0 0 48 48"><g >
<path d="M11.85662,31.53889c0.01049,0.02911,0.2592,0.7167,0.40326,1.05754c0.79095,1.87016,1.92362,3.55009,3.36665,4.9931
	c1.44193,1.44189,3.12206,2.57442,4.99378,3.36609c1.93756,0.81963,3.99533,1.23521,6.11614,1.23521
	c2.12042,0,4.17819-0.41565,6.11615-1.23537c1.871-0.79137,3.5512-1.92407,4.99377-3.36662
	c1.44245-1.44235,2.57512-3.12251,3.36665-4.99372c0.81963-1.93785,1.23521-3.99563,1.23521-6.11618
	c0-2.12071-0.41558-4.17848-1.23521-6.11618c-0.7914-1.87107-1.92406-3.55123-3.36665-4.99381
	c-1.44212-1.44226-3.12231-2.57498-4.99377-3.36668c-1.93776-0.81963-3.99553-1.23522-6.11615-1.23522
	c-2.14578,0-4.28986,0.42712-6.20057,1.23522c-1.52719,0.64612-4.11229,2.30944-5.62547,3.86998l-0.00893,0.00916V2.95074
	l21.72096-0.0002c0.79042-0.00864,0.79042-1.11246,0.79042-1.47517c0-0.36265,0-1.46618-0.79284-1.4752L13.13395,0
	c-0.63938,0-1.03515,0.53185-1.03515,1.02462v18.20053c0,0.58719,0.73143,1.01115,1.41103,1.15656
	c1.3272,0.28348,1.63378-0.14074,1.95882-0.58967l0.04309-0.05955c0.49622-0.73713,2.04695-2.29784,2.06246-2.31338
	c2.42003-2.41993,5.65578-3.75264,9.11109-3.75264c3.43881,0,6.66537,1.3327,9.08533,3.7526
	c2.42818,2.42831,3.76548,5.64584,3.76548,9.05988c0,3.42636-1.33046,6.64376-3.74625,9.05959
	c-2.38496,2.38493-5.71667,3.75277-9.14081,3.75277c-2.31925,0-4.55799-0.61797-6.47573-1.78746l0.00821-11.06667
	c0-1.4756,0.64035-3.07972,1.71292-4.29101c1.22628-1.38479,2.91625-2.14744,4.75877-2.14744
	c1.78437,0,3.45087,0.67741,4.6926,1.90744c1.23279,1.22129,1.91175,2.84842,1.91175,4.58165
	c0,3.6982-2.90804,6.59513-6.62039,6.59513c-0.71565,0-2.01664-0.3162-2.07009-0.32924
	c-0.74961-0.22324-1.06846,0.81738-1.17341,1.16038c-0.40346,1.31918,0.20287,1.58068,0.32849,1.61973
	c1.19466,0.37073,1.97798,0.44101,3.00563,0.44101c5.24065,0,9.50424-4.26568,9.50424-9.50887
	c0-5.20111-4.26098-9.43254-9.49844-9.43254c-2.56482,0-4.97429,0.98042-6.78447,2.76068
	c-1.72394,1.69542-2.71267,3.95606-2.71267,6.20171l-0.00098,0.05574c-0.00841,0.28002-0.01389,6.91429-0.01545,9.09146
	l-0.00978-0.01081c-0.98514-1.09076-1.95868-2.76036-2.60425-4.46621c-0.25307-0.66855-0.82458-0.5502-1.60458-0.31001
	c-0.34062,0.10492-1.37726,0.42425-1.14799,1.1736L11.85662,31.53889z M23.02059,28.93877
	c0.00339,0.31812,0.29446,0.59698,0.46832,0.76363l0.05463,0.05271c0.29818,0.29329,0.58221,0.44199,0.84408,0.44199
	c0.21688,0,0.35052-0.10258,0.39785-0.14665c0.13136-0.12197,1.61716-1.62749,1.75888-1.7711l1.65698,1.65165
	c0.15339,0.17282,0.32015,0.25942,0.51448,0.26476c0.2646,0,0.55294-0.15733,0.85698-0.46766
	c0.715-0.73006,0.35724-1.1237,0.18423-1.31403l-1.67889-1.67941l1.75086-1.76325c0.38397-0.41545,0.04498-0.85698-0.29322-1.19521
	c-0.49107-0.49108-0.96487-0.61781-1.26853-0.33798l-1.74095,1.74395l-1.76051-1.761
	c-0.09329-0.08941-0.21095-0.13667-0.34029-0.13667c-0.23462,0-0.5122,0.15864-0.82511,0.47155
	c-0.54146,0.54133-0.65757,0.91559-0.37575,1.21415l1.76097,1.75559l-1.7506,1.75373
	C23.09099,28.62332,23.01883,28.77785,23.02059,28.93877z M26.85738,5.1428c-2.81443,0-5.80812,0.56813-8.00768,1.5196
	c-0.23514,0.09205-0.37569,0.28093-0.40652,0.54622c-0.02894,0.2503,0.03866,0.58051,0.20685,1.01024
	c0.13638,0.34857,0.4987,1.27452,1.20014,1.00692c2.25113-0.85871,4.73967-1.33162,7.00722-1.33162
	c2.56938,0,5.06125,0.50293,7.40652,1.49486c1.8635,0.78833,3.6218,1.92703,5.53348,3.58356
	c0.13937,0.12083,0.28729,0.18207,0.43963,0.18207c0.37269,0,0.73019-0.36607,1.036-0.70923
	c0.51043-0.57265,0.86095-1.04857,0.35808-1.52491c-1.82557-1.72935-3.82597-3.02121-6.29548-4.06551
	C32.64987,5.71888,29.79737,5.1428,26.85738,5.1428z M42.02269,39.89665h0.00006c-0.33866-0.33772-0.62634-0.53716-0.87941-0.60975
	c-0.25658-0.07367-0.48573-0.01878-0.66272,0.1587l-0.16662,0.1663c-1.74434,1.74453-3.77565,3.11414-6.0374,4.07076
	c-2.34056,0.99-4.82761,1.49196-7.3921,1.49196c-2.5645,0-5.05147-0.50196-7.39204-1.49196
	c-2.26155-0.95652-4.29273-2.32606-6.03714-4.07063c-1.81742-1.81739-3.18698-3.84847-4.0705-6.03688
	c-0.86148-2.13385-1.14284-3.73875-1.23528-4.2661c-0.00867-0.04938-0.01552-0.08846-0.02089-0.11673
	c-0.11855-0.62096-0.69013-0.66441-1.51155-0.53876c-0.34162,0.05228-1.3812,0.21131-1.28221,0.95927l0.00238,0.01708
	c0.27523,1.7314,0.76145,3.42903,1.44519,5.0457c1.099,2.59829,2.67193,4.93129,4.675,6.93421
	c2.00314,2.00324,4.33628,3.5761,6.93448,4.67494C21.08192,47.42291,23.93924,48,26.8845,48
	c2.94376,0,5.80115-0.57738,8.49263-1.71608c2.59734-1.09844,4.93048-2.67163,6.93454-4.67575
	c0.00463-0.0046,0.11408-0.11324,0.17399-0.17846C42.7062,41.18961,42.89812,40.76947,42.02269,39.89665z"/>
</g></svg>