<svg xmlns="http://www.w3.org/2000/svg" xmlns:xlink="http://www.w3.org/1999/xlink" x="0px" y="0px" width="48px" height="48px" viewBox="0 0 48 48"><g >
<circle fill="#FFFFFF" cx="5.4563" cy="23.5596" r="4.53396">
</circle>
<path d="M5.45596,29.01598C2.44736,29.01598,0,26.5678,0,23.5592s2.44736-5.45678,5.45596-5.45678
	c3.00942,0,5.45678,2.44818,5.45678,5.45678S8.46538,29.01598,5.45596,29.01598z M5.45596,19.94756
	c-1.99099,0-3.61082,1.62065-3.61082,3.61163s1.61983,3.61164,3.61082,3.61164S9.0676,25.55018,9.0676,23.5592
	S7.44695,19.94756,5.45596,19.94756z"/>
<circle fill="#FFFFFF" cx="42.54347" cy="23.5596" r="4.53396">
</circle>
<path d="M42.54322,29.01598c-3.0086,0-5.45596-2.44818-5.45596-5.45678s2.44736-5.45678,5.45596-5.45678
	C45.55264,18.10242,48,20.55059,48,23.5592S45.55264,29.01598,42.54322,29.01598z M42.54322,19.94756
	c-1.99099,0-3.61082,1.62065-3.61082,3.61163s1.61983,3.61164,3.61082,3.61164c1.99099,0,3.61163-1.62065,3.61163-3.61164
	S44.53421,19.94756,42.54322,19.94756z"/>
<circle fill="#FFFFFF" cx="40.26978" cy="8.37873" r="3.57414">
</circle>
<ellipse fill="#FFFFFF" cx="23.90088" cy="29.79505" rx="20.53705" ry="13.40051">
</ellipse>
<path d="M25.30408,15.51977l2.81964-8.91428l7.65219,1.80152c0.01567,2.46589,2.02407,4.46805,4.49365,4.46805
	c2.48013,0,4.49734-2.01721,4.49734-4.49652s-2.01721-4.49652-4.49734-4.49652c-1.84658,0-3.43384,1.12055-4.12526,2.7161
	l-8.43107-1.98525c-0.4662-0.11143-0.94551,0.15895-1.09136,0.61942L23.3773,15.49007
	C11.78769,15.678,2.44162,22.01546,2.44162,29.79435c0,7.8984,9.62638,14.32364,21.45924,14.32364
	S45.3601,37.69275,45.3601,29.79435C45.3601,22.21364,36.48228,16.00584,25.30408,15.51977z M40.26956,5.72716
	c1.46252,0,2.65219,1.18968,2.65219,2.65137s-1.18967,2.65137-2.65219,2.65137c-1.4617,0-2.65137-1.18968-2.65137-2.65137
	S38.80787,5.72716,40.26956,5.72716z M23.90086,42.27284c-10.81524,0-19.61409-5.59771-19.61409-12.47849
	c0-6.87915,8.79885-12.47685,19.61409-12.47685s19.61409,5.59771,19.61409,12.47685
	C43.51495,36.67513,34.7161,42.27284,23.90086,42.27284z"/>
<path fill="#FF4500" d="M16.77315,23.85074c-1.824,0-3.30357,1.47956-3.30357,3.30356s1.47956,3.356,3.30357,3.356
	c1.824,0,3.30356-1.532,3.30356-3.356S18.59715,23.85074,16.77315,23.85074z"/>
<path fill="#FF4500" d="M31.24591,23.85074c-1.824,0-3.30357,1.47956-3.30357,3.30356s1.47956,3.356,3.30357,3.356
	c1.824,0,3.30356-1.532,3.30356-3.356S33.06991,23.85074,31.24591,23.85074z"/>
<path d="M31.74603,35.31335c-0.35968-0.35883-0.94391-0.35883-1.30524-0.00159c-1.25439,1.25354-3.35352,1.86316-6.41541,1.86316
	c-0.00928,0-0.01697,0.00507-0.02618,0.00531c-0.00922-0.00024-0.01697-0.00531-0.02625-0.00531
	c-3.06348,0-5.1618-0.60962-6.41541-1.86157c-0.36047-0.36047-0.9447-0.36047-1.30518,0
	c-0.35968,0.36053-0.35968,0.94391,0.00079,1.30438c1.61658,1.61737,4.14178,2.40234,7.71979,2.40234
	c0.00928,0,0.01703-0.00507,0.02625-0.00531c0.00922,0.00024,0.01691,0.00531,0.02618,0.00531
	c3.57642,0,6.10162-0.78497,7.71979-2.4007C32.10571,36.25891,32.10651,35.67389,31.74603,35.31335z"/>
</g></svg>