<svg xmlns="http://www.w3.org/2000/svg" xmlns:xlink="http://www.w3.org/1999/xlink" x="0px" y="0px" width="48px" height="48px" viewBox="0 0 48 48"><g >
<path fill-rule="evenodd" clip-rule="evenodd" fill="#FF6600" d="M46.69295,18.57133
	c-1.01019-0.43299-5.34045,0.04811-6.54326-1.04243c-0.84998-0.78584-0.90368-2.20865-1.23488-4.10558
	c-0.55482-3.17768-0.78584-3.89709-1.36318-5.14801C35.45072,3.8169,30.41667,0,25.8443,0H15.24357
	C6.90411,0,0.0882,6.83194,0.0882,15.1714v17.68928C0.0882,41.1841,6.90411,48,15.24357,48H32.6602
	c8.33946,0,15.10726-6.8159,15.15537-15.13932l0.09623-12.25259C47.9118,20.60809,47.9118,19.09375,46.69295,18.57133z M15,12H23
	c1.65685,0,3,1.34314,3,3V15c0,1.65685-1.34315,3-3,3H15c-1.65685,0-3-1.34314-3-3V15C12,13.34315,13.34315,12,15,12z M33,36H15
	c-1.65685,0-3-1.34314-3-3V33c0-1.65685,1.34314-3,3-3H33c1.65685,0,3,1.34315,3,3V33C36,34.65686,34.65686,36,33,36z"/>
</g></svg>