<svg xmlns="http://www.w3.org/2000/svg" xmlns:xlink="http://www.w3.org/1999/xlink" x="0px" y="0px" width="48px" height="48px" viewBox="0 0 48 48"><g >
<path fill="#00B6EC" d="M47.97669,12.84674c-0.21401,4.67191-3.47672,11.06859-9.78938,19.18898
	c-6.52607,8.47953-12.04804,12.72103-16.56333,12.72103c-2.79888,0-5.16648-2.58128-7.10075-7.74717
	c-1.29142-4.73514-2.58161-9.46995-3.87372-14.20542c-1.43677-5.1629-2.97669-7.7475-4.62488-7.7475
	c-0.35934,0-1.61578,0.75568-3.76738,2.26027l-2.25728-2.90821c2.36887-2.08093,4.70527-4.16179,7.00412-6.2459
	c3.15954-2.72887,5.53299-4.16498,7.11369-4.30991c3.73431-0.35907,6.03375,2.19405,6.89651,7.6589
	c0.93276,5.89692,1.57878,9.56407,1.94071,10.99918c1.07809,4.89276,2.26319,7.33655,3.55655,7.33655
	c1.0035,0,2.51353-1.58662,4.52631-4.76171c2.00887-3.17257,3.08562-5.58687,3.23089-7.24641
	c0.28741-2.73857-0.79002-4.11084-3.23089-4.11084c-1.14943,0-2.33453,0.26436-3.55328,0.78683
	c2.35975-7.72545,6.8666-11.47755,13.51848-11.26347C45.93542,3.39658,48.26144,6.59473,47.97669,12.84674z"/>
</g></svg>