<svg xmlns="http://www.w3.org/2000/svg" xmlns:xlink="http://www.w3.org/1999/xlink" x="0px" y="0px" width="48px" height="48px" viewBox="0 0 48 48"><g >
<path fill="#464342" d="M3.41166,23.99927c0,8.14911,4.73531,15.19228,11.60371,18.52892L5.19439,15.6204
	C4.05202,18.18073,3.41166,21.01429,3.41166,23.99927z"/>
<path fill="#464342" d="M37.89825,22.9609c0-2.54531-0.91438-4.30689-1.69741-5.67799
	c-1.04336-1.69671-2.02234-3.13217-2.02234-4.8289c0-1.89219,1.43497-3.65398,3.45731-3.65398
	c0.09135,0,0.17796,0.01112,0.2667,0.01667c-3.66273-3.35614-8.543-5.40548-13.9028-5.40548
	c-7.19296,0-13.52052,3.69079-17.20195,9.27956c0.48345,0.01548,0.93875,0.02496,1.32508,0.02496
	c2.15295,0,5.48712-0.26173,5.48712-0.26173c1.10937-0.06497,1.24037,1.56551,0.1317,1.69673c0,0-1.11577,0.13049-2.35614,0.1957
	l7.49693,22.30121l4.50613-13.51259l-3.20743-8.78862c-1.10927-0.06521-2.15947-0.1957-2.15947-0.1957
	c-1.10973-0.06557-0.97958-1.7617,0.13061-1.69673c0,0,3.39935,0.26173,5.42229,0.26173c2.15273,0,5.48748-0.26173,5.48748-0.26173
	c1.10985-0.06497,1.24071,1.56551,0.13134,1.69673c0,0-1.11695,0.13049-2.35623,0.1957l7.44046,22.1313l2.05406-6.86117
	C37.22052,26.76762,37.89825,24.72282,37.89825,22.9609z"/>
<path fill="#464342" d="M24.36118,25.80025L18.1833,43.74998c1.84496,0.54261,3.79559,0.83889,5.81641,0.83889
	c2.39752,0,4.69698-0.41388,6.83692-1.16711c-0.05464-0.08827-0.10577-0.18198-0.14743-0.28373L24.36118,25.80025z"/>
<path fill="#464342" d="M42.06599,14.12222c0.0885,0.65572,0.13844,1.35915,0.13844,2.11711
	c0,2.08837-0.39118,4.43692-1.56564,7.37409l-6.28828,18.18142c6.12074-3.56879,10.23711-10.19997,10.23711-17.79557
	C44.58764,20.41973,43.67302,17.05457,42.06599,14.12222z"/>
<path fill="#464342" d="M23.99971,0.00017C10.76601,0.00017,0,10.76593,0,23.99927c0,13.23431,10.76601,24.00056,23.99971,24.00056
	C37.23329,47.99983,48,37.23358,48,23.99927C48,10.76593,37.23329,0.00017,23.99971,0.00017z M23.99971,46.89945
	c-12.6265,0-22.89909-10.27334-22.89909-22.90018c0-12.62635,10.27259-22.8986,22.89909-22.8986
	c12.62635,0,22.89945,10.27225,22.89945,22.8986C46.89916,36.62611,36.62606,46.89945,23.99971,46.89945z"/>
</g></svg>