<svg xmlns="http://www.w3.org/2000/svg" xmlns:xlink="http://www.w3.org/1999/xlink" x="0px" y="0px" width="48px" height="48px" viewBox="0 0 48 48"><g >
<path fill-rule="evenodd" clip-rule="evenodd" fill="#191717" d="M23.99845,0.59265C10.74637,0.59265,0,11.33769,0,24.59404
	c0,10.60258,6.87606,19.59804,16.41386,22.77204c1.20004,0.22012,1.63806-0.52082,1.63806-1.15686
	c0-0.56974-0.02077-2.07903-0.03241-4.08188c-6.67598,1.45035-8.08463-3.21718-8.08463-3.21718
	c-1.09131-2.77253-2.66469-3.51067-2.66469-3.51067c-2.17907-1.4891,0.16487-1.4589,0.16487-1.4589
	c2.40847,0.16973,3.67612,2.47329,3.67612,2.47329c2.14091,3.66758,5.6171,2.60854,6.98465,1.99416
	c0.21805-1.55098,0.83804-2.60854,1.52373-3.20849c-5.32935-0.60569-10.93201-2.66468-10.93201-11.86154
	c0-2.62004,0.93513-4.76241,2.47034-6.4401c-0.24678-0.60716-1.07038-3.0473,0.23529-6.35155c0,0,2.01508-0.64532,6.59981,2.46033
	c1.91431-0.53232,3.9674-0.79855,6.00842-0.80783c2.03807,0.00928,4.09131,0.27551,6.00842,0.80783
	c4.58193-3.10565,6.59333-2.46033,6.59333-2.46033c1.30935,3.30425,0.48561,5.74439,0.23883,6.35155
	c1.53816,1.67769,2.46695,3.82007,2.46695,6.4401c0,9.21985-5.61135,11.24863-10.95794,11.84283
	c0.86175,0.74094,1.62936,2.20573,1.62936,4.44447c0,3.20848-0.02947,5.79699-0.02947,6.5839
	c0,0.64178,0.43228,1.38847,1.65029,1.15406C41.12967,44.18338,48,35.19382,48,24.59404
	C48,11.33769,37.25348,0.59265,23.99845,0.59265z"/>
</g></svg>