<svg xmlns="http://www.w3.org/2000/svg" xmlns:xlink="http://www.w3.org/1999/xlink" x="0px" y="0px" width="48px" height="48px" viewBox="0 0 48 48"><g >
<path fill="#95BF47" d="M39.84516,9.35914c-0.03441-0.24086-0.24086-0.3785-0.4129-0.3785S35.5785,8.70538,35.5785,8.70538
	s-2.54624-2.54624-2.85592-2.82151c-0.27527-0.27527-0.82581-0.20645-1.03226-0.13763c-0.03441,0-0.55054,0.17204-1.44516,0.44731
	c-0.86022-2.51183-2.3742-4.7828-5.02366-4.7828c-0.06882,0-0.13763,0-0.24086,0C24.25806,0.44731,23.29462,0,22.50323,0
	c-6.19355,0-9.15269,7.74194-10.08172,11.66452c-2.4086,0.75699-4.12903,1.27312-4.33548,1.34194
	c-1.34194,0.4129-1.37634,0.44731-1.54839,1.72043C6.4,15.69032,2.89032,42.87312,2.89032,42.87312L30.24516,48l14.83011-3.2
	C45.07527,44.76559,39.87957,9.6,39.84516,9.35914z M28.73118,6.60645c-0.68817,0.20645-1.47957,0.44731-2.30537,0.72258
	c0-0.17204,0-0.30968,0-0.51613c0-1.51398-0.20645-2.75269-0.55054-3.75054C27.25161,3.26882,28.14624,4.8172,28.73118,6.60645z
	 M24.15484,3.40645c0.37849,0.96344,0.61935,2.30538,0.61935,4.16344c0,0.10323,0,0.17204,0,0.27527
	c-1.51398,0.48172-3.13118,0.96344-4.78279,1.47957C20.92043,5.78064,22.67527,4.06021,24.15484,3.40645z M22.33118,1.65161
	c0.27527,0,0.55054,0.10323,0.7914,0.27527c-1.9957,0.92903-4.09462,3.26882-4.98925,7.9828
	c-1.30753,0.4129-2.58064,0.7914-3.78495,1.16989C15.38065,7.50107,17.89247,1.65161,22.33118,1.65161z"/>
<path fill="#5E8E3E" d="M39.43226,8.94624c-0.17204,0-3.85376-0.27527-3.85376-0.27527s-2.54624-2.54624-2.85592-2.82151
	c-0.10323-0.10323-0.24086-0.17204-0.37849-0.17204L30.27957,48l14.83011-3.2c0,0-5.1957-35.2-5.23011-35.44086
	C39.81075,9.11828,39.6043,8.98065,39.43226,8.94624z"/>
<path fill="#FFFFFF" d="M25.22151,17.13548l-1.82366,5.43656c0,0-1.6172-0.86021-3.57849-0.86021
	c-2.89032,0-3.02796,1.82366-3.02796,2.27097c0,2.47742,6.46882,3.44086,6.46882,9.25591c0,4.57635-2.89032,7.53548-6.8129,7.53548
	c-4.71398,0-7.08817-2.92473-7.08817-2.92473l1.27312-4.16344c0,0,2.47742,2.13333,4.54193,2.13333
	c1.37634,0,1.92688-1.06667,1.92688-1.85807c0-3.23441-5.29892-3.37204-5.29892-8.70538c0-4.47312,3.2-8.8086,9.70323-8.8086
	C23.9828,16.4129,25.22151,17.13548,25.22151,17.13548z"/>
</g></svg>