<svg xmlns="http://www.w3.org/2000/svg" xmlns:xlink="http://www.w3.org/1999/xlink" x="0px" y="0px" width="48px" height="48px" viewBox="0 0 48 48"><g >
<circle fill-rule="evenodd" clip-rule="evenodd" fill="#EC4989" cx="24" cy="24" r="22"/>
<path fill-rule="evenodd" clip-rule="evenodd" fill="#C51E60" d="M24,48C10.76634,48,0,37.23367,0,24S10.76634,0,24,0
	s24,10.76634,24,24S37.23367,48,24,48z M44.24043,27.28526c-0.70131-0.22139-6.34512-1.90462-12.76904-0.87632
	c2.68127,7.368,3.77242,13.36901,3.98248,14.61604C40.05281,37.91529,43.32676,32.98922,44.24043,27.28526z M32.00759,42.90177
	c-0.30491-1.79855-1.49512-8.0667-4.37317-15.54565c-0.04508,0.01537-0.09014,0.02997-0.13522,0.04568
	c-11.56254,4.02907-15.71318,12.04754-16.08208,12.80169C14.89291,42.91393,19.26098,44.53096,24,44.53096
	C26.83974,44.53096,29.54627,43.95018,32.00759,42.90177z M8.77028,37.73798c0.46437-0.79491,6.09047-10.11026,16.66294-13.52769
	c0.2672-0.08636,0.53661-0.16751,0.8078-0.24389c-0.51458-1.16453-1.0751-2.33039-1.662-3.47891
	c-10.23733,3.06376-20.17138,2.93579-21.06828,2.91738c-0.00628,0.20814-0.01044,0.41677-0.01044,0.62638
	C3.50029,29.29642,5.49619,34.10373,8.77028,37.73798z M3.93331,19.83267c0.91689,0.01211,9.36268,0.04878,18.95169-2.49764
	c-3.39667-6.03807-7.05994-11.11453-7.60038-11.85568C9.54951,8.18445,5.26262,13.47144,3.93331,19.83267z M19.1961,4.10142
	c0.56664,0.75871,4.28983,5.82892,7.64903,12.00077c7.28945-2.73216,10.37528-6.87988,10.74399-7.40503
	C33.96901,5.48534,29.20873,3.53155,24,3.53155C22.34599,3.53155,20.73766,3.72984,19.1961,4.10142z M39.86806,11.06771
	c-0.43216,0.58461-3.86734,4.98833-11.44684,8.08282c0.477,0.97645,0.93431,1.96957,1.36004,2.96928
	c0.15089,0.35431,0.29785,0.70693,0.44164,1.05791c6.82102-0.8577,13.5985,0.51693,14.27436,0.65987
	C44.45215,18.99909,42.72316,14.55604,39.86806,11.06771z"/>
</g></svg>