<svg xmlns="http://www.w3.org/2000/svg" xmlns:xlink="http://www.w3.org/1999/xlink" x="0px" y="0px" width="48px" height="48px" viewBox="0 0 48 48"><g >
<path fill="#807F83" d="M7.93153,9.29681c0,0,0,0,0.00295,0h4.5048c0.25811,0,0.46572-0.21023,0.46624-0.4664
	c0-0.00161-0.0547-3.86254-0.0547-4.93621V3.88147c0-0.88178,0.18507-1.65062,0.50745-2.29486l0.15404-0.28934
	c-0.01721,0.00291-0.03446,0.01135-0.05159,0.02852l-8.7529,8.67977c-0.01713,0.0141-0.02784,0.03236-0.03276,0.05111
	c0.18106-0.0896,0.42859-0.21205,0.46353-0.2274C5.90084,9.48531,6.82517,9.29681,7.93153,9.29681z M42.98452,8.35169
	c-0.35785-1.91556-1.49669-2.85955-2.52634-3.2307c-1.11092-0.40148-3.36353-0.81742-6.19379-1.151
	c-2.277-0.26817-4.95331-0.24684-6.56986-0.19682c-0.19403-1.32892-1.12617-2.54298-2.1691-2.96329
	c-2.77887-1.11849-7.07235-0.84829-8.17471-0.53933c-0.87597,0.24482-1.8455,0.74658-2.38515,1.51973
	c-0.36185,0.51642-0.596,1.17807-0.59782,2.10239c0,0.52317,0.01455,1.75549,0.02788,2.85043
	c0.01325,1.09836,0.02763,2.0807,0.02763,2.08733c-0.00052,0.97786-0.79302,1.77367-1.77516,1.77496H8.14257
	c-0.96105,0-1.69538,0.16148-2.25628,0.41636c-0.56178,0.25508-0.95967,0.59895-1.26198,1.00576
	c-0.60179,0.80782-0.70625,1.80474-0.70375,2.8221c0,0,0.00889,0.83132,0.20915,2.44037
	c0.16652,1.24505,1.51669,9.94252,2.79915,12.58767c0.49723,1.02921,0.82842,1.45783,1.8053,1.91144
	c2.17657,0.93183,7.14817,1.96855,9.47826,2.2654c2.32588,0.29758,3.7857,0.92319,4.65573-0.90089
	c0.0029-0.00452,0.17428-0.45384,0.40997-1.1129c0.7553-2.28876,0.86041-4.31952,0.86041-5.78908
	c0-0.14939,0.21924-0.15626,0.21924,0c0,1.03753-0.19812,4.70897,2.57527,5.69398c1.09485,0.38831,3.36611,0.73445,5.67389,1.00496
	c2.08668,0.23981,3.60103,1.06096,3.60103,6.41453c0,3.25712-0.68411,3.70369-4.2605,3.70369
	c-2.89911,0-4.00401,0.07506-4.00401-2.22816c0-1.8615,1.84105-1.66637,3.20556-1.66637c0.60946,0,0.16709-0.45335,0.16709-1.60182
	c0-1.1424,0.7145-1.80283,0.0387-1.81956c-4.7183-0.12984-7.49451-0.00542-7.49451,5.89548
	c0,5.35697,2.05004,6.35167,8.74663,6.35167c5.25047,0,7.10127-0.17194,9.26927-6.89866
	c0.42912-1.32791,1.46656-5.38049,2.09447-12.1847C44.36749,24.61432,43.59624,11.62904,42.98452,8.35169z M33.83192,22.70451
	c-0.64869-0.0227-1.27261,0.01826-1.85435,0.11175c0.1637-1.32238,0.70956-2.945,2.6431-2.87709
	c2.14041,0.07361,2.44033,2.09666,2.44797,3.46692C36.16608,23.0037,35.04885,22.74725,33.83192,22.70451z"/>
</g></svg>