<?xml version="1.0" encoding="iso-8859-1"?>
<!-- Generator: Adobe Illustrator 19.0.0, SVG Export Plug-In . SVG Version: 6.00 Build 0)  -->
<svg version="1.1" xmlns="http://www.w3.org/2000/svg" xmlns:xlink="http://www.w3.org/1999/xlink" x="0px" y="0px"
	 viewBox="0 0 512 512" style="enable-background:new 0 0 512 512;" xml:space="preserve">
<circle style="fill:#FFD164;" cx="256" cy="256" r="256"/>
<path style="fill:#FFC350;" d="M289.032,478.968c-141.385,0-256-114.615-256-256c0-62.282,22.26-119.352,59.233-163.735
	C35.895,106.192,0,176.897,0,256c0,141.385,114.615,256,256,256c79.104,0,149.809-35.896,196.769-92.267
	C408.385,456.707,351.315,478.968,289.032,478.968z"/>
<circle style="fill:#6F6571;" cx="256" cy="256" r="24.774"/>
<g>
	<path style="fill:#5D5360;" d="M219.817,193.33L153.163,77.881c-4.815-8.341-15.774-10.887-23.699-5.414
		c-53.698,37.082-90.351,97.079-95.743,165.884C32.974,247.885,40.681,256,50.244,256h133.342c7.697,0,14.335-5.335,16.043-12.84
		c2.611-11.472,8.644-21.638,16.963-29.388C222.276,208.477,223.701,200.057,219.817,193.33z"/>
	<path style="fill:#5D5360;" d="M358.855,434.15l-66.656-115.452c-3.892-6.741-11.91-9.704-19.35-7.417
		c-5.327,1.638-10.981,2.526-16.848,2.526s-11.521-0.888-16.848-2.526c-7.44-2.287-15.459,0.676-19.35,7.417L153.145,434.15
		c-4.806,8.325-1.565,19.069,7.112,23.207c29.01,13.836,61.46,21.611,95.743,21.611s66.733-7.776,95.743-21.611
		C360.419,453.218,363.661,442.475,358.855,434.15z"/>
	<path style="fill:#5D5360;" d="M292.183,193.33l66.654-115.448c4.815-8.341,15.774-10.887,23.699-5.414
		c53.698,37.082,90.351,97.079,95.743,165.884c0.747,9.533-6.96,17.649-16.523,17.649H328.414c-7.697,0-14.335-5.335-16.043-12.84
		c-2.611-11.472-8.644-21.638-16.963-29.388C289.724,208.477,288.299,200.057,292.183,193.33z"/>
</g>
<g>
	<path style="fill:#6F6571;" d="M301.385,177.392l-9.202,15.938c-3.884,6.727-2.459,15.147,3.225,20.442
		c8.319,7.751,14.352,17.916,16.963,29.388c1.708,7.506,8.346,12.84,16.043,12.84h18.425
		C346.839,222.382,328.53,193.101,301.385,177.392z"/>
	<path style="fill:#6F6571;" d="M199.629,243.16c2.611-11.472,8.644-21.638,16.963-29.388c5.683-5.295,7.109-13.715,3.225-20.442
		l-9.202-15.938c-27.145,15.709-45.454,44.99-45.454,78.608h18.425C191.283,256,197.921,250.665,199.629,243.16z"/>
	<path style="fill:#6F6571;" d="M256,346.839c16.551,0,32.021-4.497,45.385-12.231l-9.186-15.91
		c-3.892-6.741-11.91-9.704-19.35-7.417c-5.327,1.638-10.981,2.526-16.848,2.526s-11.521-0.888-16.848-2.526
		c-7.44-2.287-15.459,0.676-19.35,7.417l-9.186,15.91C223.979,342.341,239.449,346.839,256,346.839z"/>
</g>
</svg>
