<!--
ref: https://www.flaticon.com/free-icon/rocket_1168654
<div>Icons made by <a href="https://www.freepik.com/" title="Freepik">Freepik</a> from <a href="https://www.flaticon.com/" 			    title="Flaticon">www.flaticon.com</a> is licensed by <a href="http://creativecommons.org/licenses/by/3.0/" 			    title="Creative Commons BY 3.0" target="_blank">CC 3.0 BY</a></div>
-->
<svg height="512pt" viewBox="0 -15 512.00038 512" width="512pt" xmlns="http://www.w3.org/2000/svg"><path d="m161.886719 231.800781-93.574219 93.574219c-11.789062 11.792969-11.789062 31.089844 0 42.882812 11.796875 11.792969 31.09375 11.792969 42.886719 0l9.441406-9.441406c8.949219-8.949218 23.59375-8.949218 32.542969 0 8.949218 8.949219 8.949218 23.59375 0 32.542969l-39.042969 39.046875c-11.792969 11.792969-11.792969 31.089844 0 42.882812 11.792969 11.792969 31.089844 11.792969 42.882813 0l123.175781-123.175781zm0 0" fill="#ccf8ff"/><path d="m128.425781 265.265625c2.65625 13.671875 9.382813 30.554687 23.640625 50.355469 25.96875 36.070312 52.113282 62.863281 68.6875 93.9375l59.445313-59.445313-118.3125-118.3125zm0 0" fill="#abebf4"/><path d="m363.160156 348.386719c-17.078125 17.078125-97.84375 74.070312-112.507812 59.410156-14.660156-14.664063 42.332031-95.429687 59.410156-112.507813 17.078125-17.078124 38.71875-14.945312 53.382812-.285156 14.660157 14.664063 16.792969 36.304688-.285156 53.382813zm0 0" fill="#ff929f"/><path d="m216.710938 201.9375c-17.078126 17.078125-97.84375 74.070312-112.507813 59.410156-14.660156-14.664062 42.332031-95.429687 59.410156-112.507812s38.71875-14.945313 53.382813-.285156c14.660156 14.664062 16.792968 36.300781-.285156 53.382812zm0 0" fill="#ff929f"/><path d="m510.078125 51.644531c-3.015625-26.109375-23.609375-46.707031-49.722656-49.71875-50.816407-5.871093-137.355469-2.484375-197.097657 71.316407-48.914062 60.421874-78.667968 104.308593-95.585937 131.664062-11.90625 19.253906-8.992187 44.164062 7.015625 60.171875l72.234375 72.234375c16.007813 16.007812 40.917969 18.921875 60.171875 7.015625 27.359375-16.917969 71.246094-46.671875 131.664062-95.585937 73.800782-59.742188 77.1875-146.28125 71.320313-197.097657zm0 0" fill="#eaeaea"/><path d="m511.613281 69.949219c-.339843-6.488281-.882812-12.621094-1.539062-18.304688-3.015625-26.109375-23.609375-46.707031-49.71875-49.71875-50.816407-5.871093-137.355469-2.484375-197.101563 71.316407-48.910156 60.421874-78.664062 104.308593-95.582031 131.664062-11.90625 19.253906-8.992187 44.164062 7.015625 60.171875l48.441406 48.441406c24.257813-57.761719 71.402344-116.738281 104.375-153.84375 19.957032-22.460937 47.128906-37.101562 76.785156-41.941406 54.09375-8.824219 88.753907-31.65625 107.324219-47.785156zm0 0" fill="#d8d7da"/><path d="m510.078125 51.644531c-3.015625-26.109375-23.609375-46.707031-49.722656-49.71875-18.613281-2.152343-42.027344-3.058593-67.152344.28125l116.589844 116.589844c3.339843-25.125 2.433593-48.539063.285156-67.152344zm0 0" fill="#ff929f"/><path d="m510.078125 51.644531c-3.015625-26.109375-23.609375-46.707031-49.722656-49.71875-18.613281-2.152343-42.027344-3.058593-67.152344.28125l88.699219 88.699219c12.542968-7.179688 22.382812-14.59375 29.710937-20.957031-.339843-6.488281-.878906-12.621094-1.535156-18.304688zm0 0" fill="#ff737d"/><path d="m289.9375 275.160156c-17.078125 17.078125-97.847656 74.074219-112.507812 59.410156-14.664063-14.664062 42.332031-95.429687 59.410156-112.507812s38.71875-14.945312 53.378906-.28125c14.664062 14.660156 16.796875 36.300781-.28125 53.378906zm0 0" fill="#ff929f"/><path d="m433.265625 144.71875c0 36.441406-29.542969 65.984375-65.984375 65.984375-36.445312 0-65.984375-29.542969-65.984375-65.984375s29.539063-65.984375 65.984375-65.984375c36.441406 0 65.984375 29.542969 65.984375 65.984375zm0 0" fill="#d8d7da"/><path d="m327.503906 159.675781c19.957032-22.460937 47.128906-37.101562 76.785156-41.941406 7.382813-1.203125 14.414063-2.671875 21.085938-4.347656-2.972656-5.5-6.789062-10.679688-11.4375-15.328125-25.765625-25.765625-67.546875-25.765625-93.316406 0-21.941406 21.945312-25.195313 55.496094-9.773438 80.886718 5.804688-6.90625 11.417969-13.371093 16.65625-19.269531zm0 0" fill="#c6c5ca"/><path d="m342.476562 169.523438c-13.679687-13.675782-13.679687-35.933594 0-49.609376 13.675782-13.679687 35.929688-13.679687 49.609376 0 13.675781 13.675782 13.675781 35.933594 0 49.609376-13.679688 13.675781-35.933594 13.679687-49.609376 0zm0 0" fill="#ccf8ff"/><g fill="#abebf4"><path d="m360.589844 142.539062c10.988281-10.988281 27.515625-13.136718 40.679687-6.472656-1.5-5.917968-4.5625-11.527344-9.183593-16.152344-13.679688-13.675781-35.933594-13.675781-49.613282 0-13.675781 13.679688-13.675781 35.933594 0 49.609376 2.691406 2.691406 5.722656 4.855468 8.945313 6.488281-2.933594-11.597657.117187-24.417969 9.171875-33.472657zm0 0"/><path d="m60.738281 406.269531c0 16.769531-13.597656 30.367188-30.371093 30.367188-16.769532 0-30.367188-13.597657-30.367188-30.367188 0-16.773437 13.597656-30.371093 30.367188-30.371093 16.773437 0 30.371093 13.597656 30.371093 30.371093zm0 0"/></g></svg>