<?xml version="1.0" encoding="utf-8"?>
<!-- Generator: Adobe Illustrator 16.0.0, SVG Export Plug-In . SVG Version: 6.00 Build 0)  -->
<!DOCTYPE svg PUBLIC "-//W3C//DTD SVG 1.1//EN" "http://www.w3.org/Graphics/SVG/1.1/DTD/svg11.dtd">
<svg version="1.1" id="Layer_1" xmlns="http://www.w3.org/2000/svg" xmlns:xlink="http://www.w3.org/1999/xlink" x="0px" y="0px"
	 width="128px" height="128px" viewBox="0 0 128 128" enable-background="new 0 0 128 128" xml:space="preserve">
<g>
	<g>
		<path fill="#546E7A" d="M16,36C9.371,36,4,41.371,4,48v16c0,6.629,5.371,12,12,12s12-5.371,12-12V48C28,41.371,22.629,36,16,36z
			 M20,64c0,2.207-1.793,4-4,4s-4-1.793-4-4V48c0-2.207,1.793-4,4-4s4,1.793,4,4V64z M48,52c-6.629,0-12,5.371-12,12v16
			c0,6.629,5.371,12,12,12s12-5.371,12-12V64C60,57.371,54.629,52,48,52z M52,80c0,2.207-1.793,4-4,4s-4-1.793-4-4V64
			c0-2.207,1.793-4,4-4s4,1.793,4,4V80z M80,28c-6.629,0-12,5.371-12,12v16c0,6.629,5.371,12,12,12s12-5.371,12-12V40
			C92,33.371,86.629,28,80,28z M84,56c0,2.207-1.793,4-4,4s-4-1.793-4-4V40c0-2.207,1.793-4,4-4s4,1.793,4,4V56z M112,68
			c-6.629,0-12,5.371-12,12v16c0,6.629,5.371,12,12,12s12-5.371,12-12V80C124,73.371,118.629,68,112,68z M116,96
			c0,2.207-1.793,4-4,4s-4-1.793-4-4V80c0-2.207,1.793-4,4-4s4,1.793,4,4V96z"/>
	</g>
</g>
<path fill="#B0BEC5" d="M16,28c1.371,0,2.707,0.141,4,0.406V8c0-2.211-1.789-4-4-4s-4,1.789-4,4v20.406
	C13.293,28.141,14.629,28,16,28z"/>
<path fill="#B0BEC5" d="M16,84c-1.371,0-2.707-0.141-4-0.406V120c0,2.211,1.789,4,4,4s4-1.789,4-4V83.594
	C18.707,83.859,17.371,84,16,84z"/>
<path fill="#B0BEC5" d="M48,44c1.371,0,2.707,0.141,4,0.406V8c0-2.211-1.789-4-4-4s-4,1.789-4,4v36.406
	C45.293,44.141,46.629,44,48,44z"/>
<path fill="#B0BEC5" d="M48,100c-1.371,0-2.707-0.141-4-0.406V120c0,2.211,1.789,4,4,4s4-1.789,4-4V99.594
	C50.707,99.859,49.371,100,48,100z"/>
<path fill="#B0BEC5" d="M80,20c1.371,0,2.707,0.141,4,0.406V8c0-2.211-1.789-4-4-4s-4,1.789-4,4v12.406
	C77.293,20.141,78.629,20,80,20z"/>
<path fill="#B0BEC5" d="M80,76c-1.371,0-2.707-0.141-4-0.406V120c0,2.211,1.789,4,4,4s4-1.789,4-4V75.594
	C82.707,75.859,81.371,76,80,76z"/>
<path fill="#B0BEC5" d="M112,60c1.371,0,2.707,0.141,4,0.406V8c0-2.211-1.789-4-4-4s-4,1.789-4,4v52.406
	C109.293,60.141,110.629,60,112,60z"/>
<path fill="#B0BEC5" d="M112,116c-1.371,0-2.707-0.141-4-0.406V120c0,2.211,1.789,4,4,4s4-1.789,4-4v-4.406
	C114.707,115.859,113.371,116,112,116z"/>
</svg>
