<?xml version="1.0" encoding="utf-8"?>
<!-- Generator: Adobe Illustrator 16.0.0, SVG Export Plug-In . SVG Version: 6.00 Build 0)  -->
<!DOCTYPE svg PUBLIC "-//W3C//DTD SVG 1.1//EN" "http://www.w3.org/Graphics/SVG/1.1/DTD/svg11.dtd">
<svg version="1.1" id="Layer_1" xmlns="http://www.w3.org/2000/svg" xmlns:xlink="http://www.w3.org/1999/xlink" x="0px" y="0px"
	 width="128px" height="128px" viewBox="0 0 128 128" enable-background="new 0 0 128 128" xml:space="preserve">
<g>
	<g>
		<path fill="#546E7A" d="M112,12H16C7.164,12,0,19.164,0,28v72c0,8.836,7.164,16,16,16h96c8.836,0,16-7.164,16-16V28
			C128,19.164,120.836,12,112,12z M104,100c0,4.41-3.59,8-8,8H16c-4.41,0-8-3.59-8-8V28c0-4.41,3.59-8,8-8h80c4.41,0,8,3.59,8,8v16
			H92c-11.047,0-20,8.953-20,20s8.953,20,20,20h12V100z M120,100c0,4.41-3.59,8-8,8h-2.219c1.375-2.363,2.219-5.07,2.219-8V84h8V100
			z M120,76H92c-6.617,0-12-5.383-12-12s5.383-12,12-12h28V76z M120,44h-8V28c0-2.93-0.844-5.637-2.219-8H112c4.41,0,8,3.59,8,8V44z
			 M88,64c0,2.211,1.789,4,4,4s4-1.789,4-4s-1.789-4-4-4S88,61.789,88,64z"/>
	</g>
</g>
</svg>
