<?xml version="1.0" encoding="utf-8"?>
<!-- Generator: Adobe Illustrator 16.0.0, SVG Export Plug-In . SVG Version: 6.00 Build 0)  -->
<!DOCTYPE svg PUBLIC "-//W3C//DTD SVG 1.1//EN" "http://www.w3.org/Graphics/SVG/1.1/DTD/svg11.dtd">
<svg version="1.1" id="Layer_1" xmlns="http://www.w3.org/2000/svg" xmlns:xlink="http://www.w3.org/1999/xlink" x="0px" y="0px"
	 width="128px" height="128px" viewBox="0 0 128 128" enable-background="new 0 0 128 128" xml:space="preserve">
<g>
	<g>
		<path fill="#B3E5FC" d="M64,0c0,0-40,48-40,88c0,22.094,17.91,40,40,40s40-17.906,40-40C104,48,64,0,64,0z M64,120
			c-17.645,0-32-14.352-32-32c0-27.43,21.215-60.039,32.004-74.852C74.797,27.945,96,60.516,96,88C96,105.648,81.645,120,64,120z"/>
	</g>
</g>
<path fill="#03A9F4" d="M64,104c4.41,0,8,3.586,8,8s-3.59,8-8,8s-8-3.586-8-8S59.59,104,64,104 M64,96c-8.836,0-16,7.164-16,16
	s7.164,16,16,16s16-7.164,16-16S72.836,96,64,96L64,96z"/>
</svg>
